<svg xmlns="http://www.w3.org/2000/svg" xmlns:xlink="http://www.w3.org/1999/xlink" version="1.1" width="1000" height="1000" viewBox="0 0 1000 1000" xml:space="preserve">
<desc>Created with Fabric.js 3.5.0</desc>
<defs>
</defs>
<rect x="0" y="0" width="100%" height="100%" fill="#ffffff"/>
<g transform="matrix(11.9617 0 0 11.9617 499.9991 499.9991)" id="883578">
<g style="" vector-effect="non-scaling-stroke">
		<g transform="matrix(1 0 0 1 0.0005 0.0005)" id="rect1313_66_">
<polygon style="stroke: none; stroke-width: 1; stroke-dasharray: none; stroke-linecap: butt; stroke-dashoffset: 0; stroke-linejoin: miter; stroke-miterlimit: 4; is-custom-font: none; font-file-url: none; fill: rgb(185,185,185); fill-rule: nonzero; opacity: 1;" points="37.0005,37.0005 -37.0005,37.0005 -37.0005,-37.0005 37.0005,-37.0005 37.0005,37.0005 "/>
</g>
		<g transform="matrix(1 0 0 1 0 0)" id="rect1313_66_">
<path style="stroke: none; stroke-width: 1; stroke-dasharray: none; stroke-linecap: butt; stroke-dashoffset: 0; stroke-linejoin: miter; stroke-miterlimit: 4; is-custom-font: none; font-file-url: none; fill: rgb(117,117,117); fill-rule: nonzero; opacity: 1;" transform=" translate(-38, -38)" d="M 75.991 0 C 75.996 0 76 0.004 76 0.009 V 75.99 c 0 0.006 -0.004 0.01 -0.009 0.01 H 0.009 C 0.004 76 0 75.996 0 75.99 V 0.009 C 0 0.004 0.004 0 0.009 0 H 75.991 M 74 2 H 2 v 72 h 72 V 2 L 74 2 z" stroke-linecap="round"/>
</g>
</g>
</g>
<g transform="matrix(25.6186 0 0 25.6186 500.0008 500.0008)" id="599720">
<g style="" vector-effect="non-scaling-stroke">
		<g transform="matrix(1 0 0 1 8.0003 10.6251)" id="path12534">
<path style="stroke: none; stroke-width: 1; stroke-dasharray: none; stroke-linecap: round; stroke-dashoffset: 0; stroke-linejoin: round; stroke-miterlimit: 4; is-custom-font: none; font-file-url: none; fill: rgb(204,60,60); fill-rule: nonzero; opacity: 1;" transform=" translate(-24.0003, -1046.9873)" d="m 24.50026 1046.9873 a 0.5 0.5 0 0 0 -0.5 -0.5 a 0.5 0.5 0 0 0 -0.5 0.5 a 0.5 0.5 0 0 0 0.5 0.5 a 0.5 0.5 0 0 0 0.5 -0.5 z" stroke-linecap="round"/>
</g>
		<g transform="matrix(1 0 0 1 0.0003 -5.0003)" id="path12532">
<path style="stroke: none; stroke-width: 1; stroke-dasharray: none; stroke-linecap: butt; stroke-dashoffset: 0; stroke-linejoin: round; stroke-miterlimit: 4; is-custom-font: none; font-file-url: none; fill: rgb(204,60,60); fill-rule: evenodd; opacity: 1;" transform=" translate(-16.0003, -1031.3619)" d="m 14.00026 1029.8619 c -0.8225 0 -1.5 0.6775 -1.5 1.5 l 0 1.5 l 1 0 l 0 -1.5 c 0 -0.2821 0.21794 -0.5 0.5 -0.5 l 4 0 c 0.28206 0 0.5 0.2179 0.5 0.5 l 0 1.5 l 1 0 l 0 -1.5 c 0 -0.8225 -0.6775 -1.5 -1.5 -1.5 z" stroke-linecap="round"/>
</g>
		<g transform="matrix(1 0 0 1 0.0001 5.4998)" id="path12536">
<path style="stroke: none; stroke-width: 1; stroke-dasharray: none; stroke-linecap: round; stroke-dashoffset: 0; stroke-linejoin: round; stroke-miterlimit: 4; is-custom-font: none; font-file-url: none; fill: rgb(204,60,60); fill-rule: nonzero; opacity: 1;" transform=" translate(-16.0001, -1041.862)" d="m 16.91432 1031.9029 c -3.63717 -0.3312 -7.30045 1.3532 -9.36133 4.6035 c -2.74787 4.3338 -1.76318 10.0566 2.27344 13.2246 c 4.0366 3.168 9.82698 2.7621 13.38281 -0.9375 a 0.50005 0.50005 0 1 0 -0.7207 -0.6933 c -3.20592 3.3355 -8.40556 3.7 -12.04492 0.8437 c -3.63939 -2.8562 -4.5224 -7.9931 -2.04492 -11.9004 c 2.47744 -3.9072 7.49951 -5.3007 11.63476 -3.2265 c 4.13532 2.0741 6.02474 6.9333 4.375 11.2558 a 0.50005 0.50005 0 1 0 0.9336 0.3574 c 1.82978 -4.7942 -0.27266 -10.2072 -4.85938 -12.5078 c -1.14666 -0.5751 -2.35597 -0.9091 -3.56836 -1.0195 z" stroke-linecap="round"/>
</g>
		<g transform="matrix(1 0 0 1 -2.9996 2.4999)" id="path12538">
<path style="stroke: none; stroke-width: 1; stroke-dasharray: none; stroke-linecap: round; stroke-dashoffset: 0; stroke-linejoin: round; stroke-miterlimit: 4; is-custom-font: none; font-file-url: none; fill: rgb(204,60,60); fill-rule: nonzero; opacity: 1;" transform=" translate(-13.0004, -1038.8622)" d="m 15.993 1035.3622 c -3.5803 0 -6.49281 2.9136 -6.49278 6.4929 a 0.50009565 0.49995596 0 1 0 1.00009 0 c -0.00003 -3.0389 2.45288 -5.4931 5.49269 -5.4931 a 0.50009565 0.49995596 0 1 0 0 -0.9998 z" stroke-linecap="round"/>
</g>
		<g transform="matrix(1 0 0 1 3.0003 -8.7498)" id="path12540">
<path style="stroke: none; stroke-width: 1; stroke-dasharray: none; stroke-linecap: round; stroke-dashoffset: 0; stroke-linejoin: round; stroke-miterlimit: 4; is-custom-font: none; font-file-url: none; fill: rgb(204,60,60); fill-rule: evenodd; opacity: 1;" transform=" translate(-19.0003, -1027.6125)" d="m 21.99245 1024.3619 a 0.50005 0.50005 0 0 0 -0.49219 0.5078 l 0 0.4941 c -0.00033 0.8346 -0.6674 1.5 -1.50195 1.5 l -1.99805 0 c -1.37479 0 -2.5 1.1253 -2.5 2.5 l 0 0.9922 a 0.50005 0.50005 0 1 0 1 0 l 0 -0.9922 c 0 -0.8343 0.66565 -1.5 1.5 -1.5 l 1.99805 0 c 1.37484 0 2.5014 -1.1251 2.50195 -2.5 l 0 -0.4941 a 0.50005 0.50005 0 0 0 -0.50781 -0.5078 z" stroke-linecap="round"/>
</g>
		<g transform="matrix(1 0 0 1 8.2502 -13.5001)" id="path12542">
<path style="stroke: none; stroke-width: 1; stroke-dasharray: none; stroke-linecap: round; stroke-dashoffset: 0; stroke-linejoin: round; stroke-miterlimit: 4; is-custom-font: none; font-file-url: none; fill: rgb(204,60,60); fill-rule: evenodd; opacity: 1;" transform=" translate(-24.2502, -1022.862)" d="m 24.735 1021.8621 a 0.49948183 0.49908647 0 0 0 -0.34337 0.152 l -0.98716 0.9884 a 0.49948183 0.49908647 0 1 0 0.70624 0.7056 l 0.98715 -0.9883 a 0.49948183 0.49908647 0 0 0 -0.36286 -0.8577 z" stroke-linecap="round"/>
</g>
		<g transform="matrix(1 0 0 1 9.2503 -11.5)" id="path12544">
<path style="stroke: none; stroke-width: 1; stroke-dasharray: none; stroke-linecap: round; stroke-dashoffset: 0; stroke-linejoin: round; stroke-miterlimit: 4; is-custom-font: none; font-file-url: none; fill: rgb(204,60,60); fill-rule: evenodd; opacity: 1;" transform=" translate(-25.2503, -1024.8622)" d="m 24.50726 1024.3622 a 0.49993718 0.50004994 0 1 0 0 1 l 1.486 0 a 0.49993718 0.50004994 0 1 0 0 -1 z" stroke-linecap="round"/>
</g>
		<g transform="matrix(1 0 0 1 6.0003 -14.2501)" id="path12546">
<path style="stroke: none; stroke-width: 1; stroke-dasharray: none; stroke-linecap: round; stroke-dashoffset: 0; stroke-linejoin: round; stroke-miterlimit: 4; is-custom-font: none; font-file-url: none; fill: rgb(204,60,60); fill-rule: evenodd; opacity: 1;" transform=" translate(-22.0003, -1022.1122)" d="m 21.99245 1020.8622 a 0.50005 0.49979362 0 0 0 -0.49219 0.5075 l 0 1.4856 a 0.50005 0.49979362 0 1 0 1 0 l 0 -1.4856 a 0.50005 0.49979362 0 0 0 -0.50781 -0.5075 z" stroke-linecap="round"/>
</g>
		<g transform="matrix(1 0 0 1 3.7503 -13.4999)" id="path12548">
<path style="stroke: none; stroke-width: 1; stroke-dasharray: none; stroke-linecap: round; stroke-dashoffset: 0; stroke-linejoin: round; stroke-miterlimit: 4; is-custom-font: none; font-file-url: none; fill: rgb(204,60,60); fill-rule: evenodd; opacity: 1;" transform=" translate(-19.7503, -1022.8623)" d="m 19.25008 1021.8624 a 0.49984219 0.49936341 0 0 0 -0.34751 0.8581 l 0.98786 0.9889 a 0.49984219 0.49936341 0 1 0 0.70675 -0.7061 l -0.98787 -0.9889 a 0.49984219 0.49936341 0 0 0 -0.35923 -0.152 z" stroke-linecap="round"/>
</g>
		<g transform="matrix(1 0 0 1 2.7503 -11.5003)" id="path12550">
<path style="stroke: none; stroke-width: 1; stroke-dasharray: none; stroke-linecap: round; stroke-dashoffset: 0; stroke-linejoin: round; stroke-miterlimit: 4; is-custom-font: none; font-file-url: none; fill: rgb(204,60,60); fill-rule: evenodd; opacity: 1;" transform=" translate(-18.7503, -1024.8619)" d="m 18.00726 1024.3619 a 0.49993718 0.50004994 0 1 0 0 1 l 1.486 0 a 0.49993718 0.50004994 0 1 0 0 -1 z" stroke-linecap="round"/>
</g>
</g>
</g>
</svg>